<svg width="120" height="119" viewBox="0 0 120 119" fill="none" xmlns="http://www.w3.org/2000/svg">
<g id="Group">
<path id="Vector" d="M60.0001 109.083C32.6152 109.083 10.4167 86.8847 10.4167 59.4998C10.4167 32.115 32.6152 9.9165 60.0001 9.9165C87.385 9.9165 109.583 32.115 109.583 59.4998C109.583 86.8847 87.385 109.083 60.0001 109.083ZM60.0001 99.1665C70.5203 99.1665 80.6097 94.9874 88.0487 87.5484C95.4876 80.1095 99.6667 70.0201 99.6667 59.4998C99.6667 48.9796 95.4876 38.8902 88.0487 31.4513C80.6097 24.0123 70.5203 19.8332 60.0001 19.8332C49.4798 19.8332 39.3905 24.0123 31.9515 31.4513C24.5126 38.8902 20.3334 48.9796 20.3334 59.4998C20.3334 70.0201 24.5126 80.1095 31.9515 87.5484C39.3905 94.9874 49.4798 99.1665 60.0001 99.1665ZM55.0566 79.3332L34.0184 58.295L41.0295 51.2839L55.0566 65.311L83.101 37.2617L90.117 44.2728L55.0566 79.3332Z" fill="#4ADE80"/>
</g>
</svg>
