<svg width="22.000000" height="22.000000" viewBox="0 0 22 22" fill="none" xmlns="http://www.w3.org/2000/svg" xmlns:xlink="http://www.w3.org/1999/xlink">
	<desc>
			Created with Pixso.
	</desc>
	<defs>
		<clipPath id="clip9_2972">
			<rect id="map-pin-2-line" width="22.000000" height="22.000000" fill="white" fill-opacity="0"/>
		</clipPath>
	</defs>
	<rect id="map-pin-2-line" width="22.000000" height="22.000000" fill="#FFFFFF" fill-opacity="0"/>
	<g clip-path="url(#clip9_2972)">
		<path id="Vector" d="M11 21.751L5.16638 15.917C4.01257 14.7632 3.22681 13.2935 2.90857 11.6929C2.59021 10.0928 2.75354 8.43359 3.37805 6.92627C4.00244 5.41895 5.05981 4.13037 6.4165 3.22363C7.77332 2.31738 9.36829 1.8335 11 1.8335C12.6317 1.8335 14.2267 2.31738 15.5835 3.22363C16.9402 4.13037 17.9976 5.41895 18.6219 6.92627C19.2465 8.43359 19.4098 10.0928 19.0916 11.6929C18.7732 13.2935 17.9874 14.7632 16.8336 15.917L11 21.751ZM15.5375 14.6211C16.4348 13.7236 17.0459 12.5801 17.2935 11.3354C17.541 10.0908 17.4138 8.80078 16.9282 7.62842C16.4425 6.45557 15.62 5.45361 14.5648 4.74854C13.5096 4.04346 12.269 3.66699 11 3.66699C9.73096 3.66699 8.49036 4.04346 7.43518 4.74854C6.38 5.45361 5.5575 6.45557 5.0719 7.62842C4.58618 8.80078 4.45911 10.0908 4.70654 11.3354C4.9541 12.5801 5.56519 13.7236 6.46252 14.6211L11 19.1582L15.5375 14.6211ZM11 11.917C10.5138 11.917 10.0475 11.7236 9.70361 11.3799C9.35986 11.0361 9.16663 10.5698 9.16663 10.0835C9.16663 9.59717 9.35986 9.13086 9.70361 8.78711C10.0475 8.44336 10.5138 8.25 11 8.25C11.4862 8.25 11.9525 8.44336 12.2964 8.78711C12.6401 9.13086 12.8334 9.59717 12.8334 10.0835C12.8334 10.5698 12.6401 11.0361 12.2964 11.3799C11.9525 11.7236 11.4862 11.917 11 11.917Z" fill="#9CA3AF" fill-opacity="1.000000" fill-rule="nonzero"/>
	</g>
</svg>
